# xmcd CD database file
# Copyright (C) 1993-1998 Ti Kan
#
# Track frame offsets:
#	150
#	16172
#	39895
#	53697
#
# Disc length: 956 seconds
#
# Revision: 1
# Processed by: cddbd v1.4b41PL1 Copyright (c) Steve Scherf et al.
# Submitted via: CDValet v3.31 - Copyright (c) 1997 Greg Leichner
#
DISCID=2003ba04
DTITLE=Otis Rush - Promo Single
DYEAR=1900
DGENRE=
TTITLE0=Homework
TTITLE1=It's My Own Fault
TTITLE2=Somebody Have Mercy
TTITLE3=A Fool For You
EXTD=
EXTT0=
EXTT1=
EXTT2=
EXTT3=
PLAYORDER=
